<svg t="1605177892368" class="icon" viewBox="0 0 1024 1024" version="1.1" xmlns="http://www.w3.org/2000/svg" p-id="19844" width="200" height="200"><path d="M443.733333 509.561905c-156.038095 68.266667-202.361905 104.838095-221.866666 119.466666-29.257143 24.380952-73.142857 265.752381-92.647619 346.209524 0 2.438095 182.857143 0 382.780952 0 0 0 380.342857-2.438095 380.342857 0 0 7.314286-58.514286-319.390476-87.771428-343.771428-19.504762-17.066667-63.390476-51.2-216.990477-119.466667H585.142857l-141.409524-2.438095z" fill="#00BBD2" p-id="19845"></path><path d="M587.580952 373.028571v175.542858c-19.504762 21.942857-46.32381 36.571429-75.580952 36.571428-29.257143 0-56.07619-14.628571-75.580952-36.571428 0 0-2.438095-2.438095-2.438096-4.876191v-170.666667c2.438095-95.085714 153.6-92.647619 153.6 0z" fill="#FFDECC" p-id="19846"></path><path d="M587.580952 373.028571v112.152381c0 2.438095 0 2.438095-2.438095 4.876191-21.942857 17.066667-46.32381 26.819048-73.142857 31.695238-26.819048-2.438095-53.638095-14.628571-73.142857-31.695238-2.438095 0-2.438095-2.438095-2.438095-4.876191v-112.152381c0-95.085714 151.161905-95.085714 151.161904 0z" fill="#F7C5AA" p-id="19847"></path><path d="M426.666667 509.561905l-46.32381 24.380952c-2.438095 0-2.438095 2.438095-2.438095 4.876191v4.87619l70.704762 97.52381c0 2.438095 2.438095 2.438095 4.87619 2.438095s2.438095 0 4.876191-2.438095l51.2-46.32381c2.438095-2.438095 2.438095-7.314286 0-9.752381l-78.019048-73.142857c-2.438095-4.87619-4.87619-4.87619-4.87619-2.438095z m173.104762 0l43.885714 24.380952c2.438095 0 2.438095 2.438095 2.438095 4.876191v4.87619l-70.704762 97.52381c0 2.438095-2.438095 2.438095-4.87619 2.438095s-2.438095 0-4.876191-2.438095l-48.761905-46.32381c-2.438095-2.438095-2.438095-7.314286 0-9.752381l75.580953-73.142857c2.438095-4.87619 4.87619-4.87619 7.314286-2.438095z" fill="#FFFFFF" p-id="19848"></path><path d="M295.009524 967.92381l9.752381 4.87619h4.87619c2.438095 0 2.438095-2.438095 2.438095-4.87619v-131.657143c0-2.438095-2.438095-4.87619-4.87619-4.876191s-4.87619 2.438095-4.87619 4.876191l-9.752381 126.780952c0 2.438095 0 4.87619 2.438095 4.876191z m433.980952 0l-14.628571 4.87619h-4.876191c-2.438095 0-2.438095-2.438095-2.438095-4.87619v-146.285715c0-2.438095 2.438095-4.87619 4.876191-4.87619s4.87619 2.438095 4.87619 4.87619l12.190476 138.971429c4.87619 2.438095 2.438095 4.87619 0 7.314286z" fill="" p-id="19849"></path><path d="M512 73.142857c-253.561905 0-163.352381 307.2-146.285714 331.580953 17.066667 24.380952 104.838095 99.961905 146.285714 99.961904s129.219048-70.704762 146.285714-97.523809c17.066667-26.819048 107.27619-331.580952-146.285714-334.019048z" fill="#FFDECC" p-id="19850"></path><path d="M316.952381 275.504762c14.628571-4.87619 31.695238 9.752381 39.009524 34.133333 7.314286 24.380952 2.438095 46.32381-9.752381 48.761905-12.190476 4.87619-31.695238-9.752381-39.009524-34.133333-7.314286-21.942857-2.438095-43.885714 9.752381-48.761905z m390.095238 0c-14.628571-4.87619-31.695238 9.752381-39.009524 34.133333-7.314286 24.380952-2.438095 46.32381 9.752381 48.761905 12.190476 4.87619 31.695238-9.752381 39.009524-34.133333 7.314286-21.942857 2.438095-43.885714-9.752381-48.761905z" fill="#FFDECC" p-id="19851"></path><path d="M394.971429 175.542857c-12.190476 63.390476-36.571429 70.704762-46.32381 117.028572 0 2.438095-2.438095 4.87619-4.87619 4.87619s-4.87619-2.438095-4.876191-4.87619c-9.752381-63.390476-9.752381-134.095238 29.257143-185.295239S541.257143 19.504762 626.590476 80.457143h2.438095c80.457143 19.504762 70.704762 160.914286 58.514286 224.304762 0 2.438095-2.438095 4.87619-4.87619 4.87619s-4.87619-2.438095-4.876191-4.87619c-12.190476-41.447619-29.257143-82.895238-46.323809-121.904762 0-2.438095-2.438095-2.438095-2.438096-2.438095h-4.87619c-48.761905 21.942857-187.733333 24.380952-229.180952-4.876191z" fill="#CC7A52" p-id="19852"></path></svg>
