<svg class="icon" viewBox="0 0 1024 1024" xmlns="http://www.w3.org/2000/svg" width="200" height="200"><defs><style/></defs><path d="M2.162 512.341c0 281.031 227.783 508.815 508.814 508.815S1019.79 793.372 1019.79 512.34 792.007 3.527 510.976 3.527 2.162 231.424 2.162 512.341z"/><path d="M564.452 842.183c-1.252.114-2.162 1.024-2.162 2.162-12.857-1.252-24.007-2.39-32.427-3.413l-3.413-.342c-1.82-.227-3.527-.341-5.348-.455l-8.42-11.605c-.34-.455-.682-.57-.796-.57-.227 0-.569 0-.91.342l-9.785 11.947c-1.82.114-3.64.227-5.461.455l-2.048.228c-8.534 1.024-19.57 2.161-32.427 3.413-.114-1.138-.91-2.048-2.162-2.162l.114-.114c3.072-2.73 51.2-46.762 52.565-58.937 1.366 12.175 49.494 56.207 52.566 58.937l.114.114z"/><path d="M400.498 320.853L261.46 210.033S213.675 372.85 294.798 422.23l105.7-101.376z"/><path d="M380.814 319.602L277.39 237.227s-35.498 121.06 24.804 157.696l78.62-75.321z"/><path d="M622.933 320.853l139.037-110.82s47.786 162.817-33.337 212.196l-105.7-101.376z"/><path d="M642.617 319.602l103.424-82.375s35.499 121.06-24.804 157.696l-78.62-75.321z"/><path d="M520.988 840.135c-6.599-.341-13.312-.341-19.91.114l9.784-11.947c.342-.341.683-.341.91-.341s.57.114.797.569l8.42 11.605z"/><path d="M703.716 572.644l-23.211-12.516s-11.947 120.604-120.49 111.047c-14.337-1.251-30.38-4.779-48.243-11.15-17.863 6.371-33.905 9.899-48.241 11.15-108.544 9.671-120.491-111.047-120.491-111.047l-23.324 12.516v.113l-167.026 89.43v.113l2.275 2.048-.113.114-2.162-2.048c-1.593 61.213 34.816 113.095 63.715 144.498 16.27 17.636 38.457 30.606 63.26 37.433h.228c10.81 3.072 22.187 4.892 33.792 5.461 43.236 2.162 95.915-1.024 136.079-4.437 3.868-.341 7.736-.683 11.491-1.024-.114-1.138-.91-2.048-2.162-2.162l.114-.114c3.072-2.73 51.2-46.762 52.565-58.937 1.366 12.175 49.494 56.207 52.566 58.937l.227.114c-1.251.114-2.161 1.024-2.161 2.162l11.491 1.024c40.05 3.413 92.729 6.599 135.965 4.437 38.343-1.934 73.955-17.522 97.28-43.008 28.9-31.402 65.308-83.399 63.715-144.498l-2.048 2.162-.114-.114 2.162-2.048v-.113l-167.14-89.543z"/><path d="M573.781 845.369c40.164 3.413 92.843 6.599 136.079 4.437 11.605-.569 22.983-2.39 33.792-5.461-99.67 7.395-143.247-19.342-145.18-20.594h-.115a42.752 42.752 0 01-6.03 9.899c-4.779 5.689-11.036 9.785-18.546 11.719zm-124.017 0c-40.164 3.413-92.843 6.599-136.079 4.437-11.605-.569-22.983-2.39-33.792-5.461 99.67 7.395 143.247-19.342 145.18-20.594h.115a42.752 42.752 0 006.03 9.899c4.778 5.689 10.922 9.785 18.546 11.719z"/><path d="M703.716 572.644c0 .113 0 .113 0 0-8.079 36.522-37.888 122.652-138.81 112.184-15.928-1.592-33.564-5.688-53.134-12.629-19.683 7.054-37.319 11.037-53.248 12.743-52.11 5.348-85.22-15.018-106.154-40.96-19.684-24.348-28.672-53.59-32.654-71.225v-.113l23.324-12.516 95.46-51.2c22.983-12.06 48.128-18.09 73.272-18.09 25.145 0 50.29 6.03 73.273 18.09l95.46 51.2 23.21 12.516z"/><path d="M680.391 560.242s-15.36 154.51-168.732 99.783c-153.373 54.727-168.733-99.783-168.733-99.783l95.46-51.2a156.78 156.78 0 01146.546 0l95.46 51.2z"/><path d="M870.741 662.3l-2.048 2.048h-.113z"/><path d="M868.58 664.348l2.161-2.048-2.048 2.048zm4.323-4.323l-2.162 2.275v-.113z"/><path d="M461.141 844.345c-3.754.341-7.509.683-11.491 1.024-7.51-1.934-13.767-5.917-18.66-11.833-2.503-3.072-4.55-6.372-6.03-9.899h-.114a68.429 68.429 0 01-3.072-8.874h4.893c1.593 5.689 4.096 11.15 7.964 15.815 5.803 7.054 14.109 11.036 24.349 11.605 1.251.114 2.161.91 2.161 2.162z"/><path d="M426.78 814.763h-4.892c-4.437-16.157-2.39-32.427-2.162-33.337.114-1.252 1.252-2.162 2.503-2.048 1.252.227 2.162 1.365 2.048 2.617-.113.341-2.161 17.066 2.503 32.768z"/><path d="M601.543 814.763c-1.82 6.599-4.665 13.198-9.216 18.773-4.779 5.803-11.036 9.899-18.546 11.833l-11.491-1.024c0-1.138.91-2.048 2.162-2.162 10.24-.569 18.545-4.551 24.348-11.605 3.755-4.551 6.258-10.126 7.964-15.815h4.78z"/><path d="M601.543 814.763h-4.892c4.665-15.815 2.503-32.54 2.503-32.768-.228-1.252.682-2.39 1.934-2.617 1.252-.228 2.503.682 2.617 2.048.114 1.024 2.275 17.18-2.162 33.337z"/><path d="M437.134 578.219a25.372 25.372 0 1050.745 0 25.372 25.372 0 10-50.745 0zM535.552 578.219a25.372 25.372 0 1050.745 0 25.372 25.372 0 10-50.745 0z"/><path d="M390.144 622.478a36.181 36.181 0 1072.363 0 36.181 36.181 0 10-72.363 0z"/><path d="M404.139 622.478a22.187 22.187 0 1044.373 0 22.187 22.187 0 10-44.373 0z"/><path d="M435.655 605.184a9.785 9.785 0 1019.57 0 9.785 9.785 0 10-19.57 0z"/><path d="M561.038 622.478a36.181 36.181 0 1072.363 0 36.181 36.181 0 10-72.363 0z"/><path d="M575.033 622.478a22.187 22.187 0 1044.373 0 22.187 22.187 0 10-44.373 0z"/><path d="M606.777 605.184a9.785 9.785 0 1019.57 0 9.785 9.785 0 10-19.57 0z"/><path d="M703.716 572.644c2.161-9.558 2.73-15.702 2.73-15.702l-110.25-59.05c-52.907-27.99-116.281-27.99-169.188 0l-110.25 59.05s.568 6.144 2.73 15.702v.113l-68.04 36.41-98.986 53.02c.91-33.792 13.54-70.429 45.398-107.862 26.168-30.72 49.38-63.146 68.152-97.393 41.757-76.232 119.126-194.105 185.8-166.912v.113c37.66 15.36 81.692 15.36 119.352 0v-.113c66.788-27.193 144.043 90.68 185.8 166.912 18.773 34.247 41.984 66.673 68.152 97.393 31.858 37.433 44.488 74.07 45.398 107.862l-166.798-89.543c0 .113 0 .113 0 0z"/><path d="M511.772 385.593c-11.719 0-23.552-6.144-35.157-2.73-117.077 34.701-224.939 226.303-224.939 226.303L438.5 509.042c22.983-12.06 48.128-18.205 73.272-18.205s50.29 6.03 73.273 18.205l186.823 100.124s-107.747-191.374-224.71-226.19c-11.834-3.527-23.666 2.617-35.386 2.617zm86.585 388.892l-11.946 2.162h-.114l-27.42-76.914c-1.935-5.347-6.827-8.874-12.516-8.874h-69.177c-5.689 0-10.581 3.527-12.516 8.874l-27.534 76.8h-.114l-11.946-2.161s4.892-12.744 11.491-30.38c6.486-17.407 14.905-39.594 21.96-59.164 1.82-4.778 3.413-9.33 5.006-13.653 1.934-5.347 3.64-10.126 5.006-14.45 12.743-37.319 43.235-39.14 43.235-39.14s30.38 1.821 43.236 39.14c1.48 4.324 3.186 9.216 5.006 14.45 1.48 4.324 3.186 8.875 4.893 13.653 14.336 39.481 33.45 89.657 33.45 89.657z"/><path d="M586.297 776.533l-28.33 5.12c-5.348.91-10.696-.796-14.337-4.665-5.461-5.575-15.587-12.856-31.858-12.856s-26.396 7.281-31.857 12.856c-3.755 3.869-9.103 5.69-14.336 4.665l-28.331-5.12 27.534-76.8c1.934-5.233 6.827-8.76 12.516-8.76h69.177c5.689 0 10.581 3.527 12.515 8.76l27.307 76.8z"/><path d="M540.672 732.16h-57.8c-5.802 0-10.125 5.575-9.329 11.72 1.593 11.377 4.665 27.76 10.468 33.108 9.102 8.534 27.761 6.144 27.761 6.144s18.66 2.39 27.762-6.144c5.69-5.347 8.875-21.731 10.468-33.109.796-6.144-3.641-11.719-9.33-11.719z"/><path d="M495.616 769.593c-.569 0-1.024-.341-1.138-.91a1.18 1.18 0 01.91-1.366c3.641-.682 3.755-3.868 3.528-8.76v-.797c-.114-2.73-5.803-3.755-7.737-3.982-.683 0-1.138-.57-1.024-1.252 0-.682.682-1.138 1.251-1.024 1.024.114 9.671.91 9.899 6.144v.797c.227 4.21.455 10.012-5.348 11.15h-.341zm32.2 0h-.228c-5.917-1.138-5.576-6.827-5.348-11.15v-.797c.228-5.234 8.875-6.03 9.899-6.144.569-.114 1.137.455 1.251 1.024 0 .683-.455 1.252-1.024 1.252-1.934.114-7.623 1.251-7.737 3.982v.796c-.227 4.78-.113 8.079 3.527 8.761.683.114 1.024.683.91 1.366-.227.569-.682.91-1.25.91z"/><path d="M526.45 840.59c-1.82-.227-3.527-.341-5.348-.455l-8.42-11.605c-.34-.455-.682-.57-.796-.57-.227 0-.569 0-.91.342l-9.785 11.947c-1.82.114-3.64.227-5.461.455-.114-.569.114-1.138.569-1.707l11.15-13.54c1.138-1.365 2.844-2.275 4.665-2.161 1.82.114 3.413 1.024 4.55 2.503l9.444 13.085c.114.568.342 1.137.342 1.706zM469.902 796.9a3.413 3.413 0 106.827 0 3.413 3.413 0 10-6.827 0zM469.902 808.96a3.413 3.413 0 106.827 0 3.413 3.413 0 10-6.827 0zM456.476 798.379a3.413 3.413 0 106.827 0 3.413 3.413 0 10-6.827 0z"/><path d="M456.476 818.176a3.413 3.413 0 106.827 0 3.413 3.413 0 10-6.827 0zM446.656 812.554a3.413 3.413 0 106.479-2.15 3.413 3.413 0 10-6.48 2.15zM439.822 802.884a3.413 3.413 0 106.48-2.15 3.413 3.413 0 10-6.48 2.15z"/><path d="M547.157 796.9a3.413 3.413 0 106.827 0 3.413 3.413 0 10-6.827 0zM547.157 808.96a3.413 3.413 0 106.827 0 3.413 3.413 0 10-6.827 0zM560.697 798.379a3.413 3.413 0 106.827 0 3.413 3.413 0 10-6.827 0z"/><path d="M560.697 818.176a3.413 3.413 0 106.827 0 3.413 3.413 0 10-6.827 0zM573.1 814.73a3.413 3.413 0 102.15-6.479 3.413 3.413 0 10-2.15 6.48zM579.824 805.01a3.413 3.413 0 102.15-6.479 3.413 3.413 0 10-2.15 6.48z"/><path d="M343.04 342.13s-13.88-15.588-11.605-26.055c0 0-5.917 11.491 1.137 16.611 0 0-13.653-5.689-10.126-23.21 0 0-7.623 22.414.228 24.917 0 0-18.66-10.809-11.606-26.965 0 0-10.126 16.156-.34 24.69 0 0-16.271-16.27-23.098-34.93-.682-1.935-3.527-1.366-3.413.568.455 15.93 3.64 38.457 17.522 47.332 22.414 14.45 24.576 17.636 24.576 17.636l16.725-20.594zm337.465 0s13.88-15.588 11.605-26.055c0 0 5.917 11.491-1.138 16.611 0 0 13.654-5.689 10.127-23.21 0 0 7.623 22.414-.228 24.917 0 0 18.66-10.809 11.605-26.965 0 0 10.127 16.156.342 24.69 0 0 16.27-16.27 23.097-34.93.682-1.935 3.527-1.366 3.413.568-.455 15.93-3.64 38.457-17.522 47.332-22.414 14.45-24.576 17.636-24.576 17.636l-16.725-20.594z"/><path d="M458.524 684.942c-7.054 19.57-15.36 41.757-21.959 59.165-75.89-6.486-83.513-82.262-84.309-100.125 20.935 25.942 54.158 46.308 106.268 40.96zm210.944-40.96c-.796 17.863-8.42 93.64-84.309 100.125-6.599-17.408-14.905-39.595-21.959-59.165 52.11 5.348 85.333-15.018 106.268-40.96z"/><path d="M573.781 845.369s-4.892 41.301-62.009 41.301c-57.002 0-62.008-41.301-62.008-41.301 3.868-.341 7.736-.683 11.491-1.024 12.857-1.252 23.893-2.39 32.427-3.413l2.048-.228c1.82-.228 3.64-.341 5.461-.455 6.713-.455 13.312-.455 19.911-.114 1.82.114 3.641.228 5.348.455l3.413.342c8.42 1.024 19.57 2.161 32.427 3.413l11.491 1.024z"/></svg>